<svg version="1.2" baseProfile="tiny-ps" xmlns="http://www.w3.org/2000/svg" viewBox="0 0 1280 800">
	<title>Vector Smart Object-ai</title>
	<style>
		tspan { white-space:pre }
		.shp0 { fill: #b7b7b7 } 
	</style>
	<g id="Layer 1">
		<path id="&lt;Compound Path&gt;" fill-rule="evenodd" class="shp0" d="M928 392.04L928 660.03C928 728.75 872.05 784.7 803.33 784.7L476.67 784.7C407.95 784.7 352 728.75 352 660.03L352 392.04C352 369.08 370.65 350.43 393.61 350.43L832.03 350.43L832.03 250.15C832.03 144.14 745.78 58.05 639.92 58.05C533.91 58.05 447.81 144.29 447.81 250.15C447.81 262.11 438.25 271.68 426.29 271.68C414.34 271.68 404.77 262.11 404.77 250.15C404.77 120.38 510.31 15 639.92 15C769.7 15 875.07 120.54 875.07 250.15L875.07 350.43L886.39 350.43C909.35 350.43 928 369.08 928 392.04ZM884.96 393.48L395.2 393.48L395.2 660.03C395.2 705.15 431.87 741.66 476.83 741.66L803.33 741.66C848.45 741.66 884.96 704.99 884.96 660.03L884.96 393.48Z" />
		<path id="&lt;Compound Path&gt;" fill-rule="evenodd" class="shp0" d="M559.57 570.75C559.57 526.44 595.6 490.25 640.08 490.25C684.4 490.25 720.59 526.27 720.59 570.75C720.59 615.08 684.56 651.27 640.08 651.27C595.6 651.27 559.57 615.08 559.57 570.75ZM602.62 570.75C602.62 591.32 619.36 608.22 640.08 608.22C660.81 608.22 677.54 591.16 677.54 570.6C677.54 550.03 660.81 533.13 640.08 533.13C619.36 533.13 602.62 550.19 602.62 570.75Z" />
	</g>
</svg>