<svg version="1.2" baseProfile="tiny-ps" xmlns="http://www.w3.org/2000/svg" viewBox="0 0 1280 800">
	<title>Vector Smart Object-ai</title>
	<style>
		tspan { white-space:pre }
		.shp0 { fill: #b7b7b7 } 
	</style>
	<g id="Layer 1">
		<g id="&lt;Group&gt;">
			<path id="&lt;Compound Path&gt;" class="shp0" d="M425.41 161.04C542.32 55.28 717.3 53.67 835.83 150.2L741.88 153.77C729.75 154.25 720.37 164.27 720.85 176.4C721.34 188.21 731.05 197.42 742.68 197.42L743.49 197.42L887.74 192.09C899.55 191.6 908.76 182.06 908.76 170.26L908.76 167.67L903.42 25.04C902.94 12.92 892.76 3.54 880.78 4.02C868.66 4.51 859.28 14.53 859.76 26.66L863.16 116.08C804.45 68.05 732.17 40.24 654.87 36.36C559.14 31.51 467.13 64.34 396.14 128.7C298.47 217.15 257.07 351.69 288.12 479.77C290.54 489.79 299.43 496.43 309.3 496.43C311.08 496.43 312.7 496.26 314.48 495.78C326.12 492.87 333.39 481.06 330.49 469.42C303.32 356.87 339.54 238.66 425.41 161.04Z" />
			<path id="&lt;Compound Path&gt;" class="shp0" d="M991.88 320.16C988.97 308.52 977.16 301.25 965.52 304.15C953.88 307.07 946.6 318.87 949.51 330.51C976.84 443.06 940.45 561.27 854.59 638.9C794.27 693.39 718.59 720.23 643.23 720.23C571.27 720.23 499.47 695.82 441.58 647.63L536.67 639.05C548.63 637.92 557.52 627.41 556.39 615.29C555.26 603.16 544.75 594.43 532.62 595.56L388.86 608.5C376.89 609.62 368 620.14 369.13 632.26L382.07 776.03C383.04 787.34 392.58 795.92 403.74 795.92C404.39 795.92 405.03 795.92 405.68 795.75C417.65 794.62 426.54 784.11 425.41 771.98L417.65 684.5C476.35 732.04 548.31 759.69 625.12 763.57C631.26 763.9 637.41 764.06 643.39 764.06C732.5 764.06 817.23 731.39 883.86 671.24C981.53 582.78 1022.93 448.4 991.88 320.16Z" />
		</g>
		<g id="&lt;Group&gt;">
			<path id="&lt;Compound Path&gt;" class="shp0" d="M620.59 523.65L462.48 523.65L462.48 500.89L542.37 412.27C556.66 396.3 566.35 383.63 571.43 374.25C576.51 364.87 579.05 355.27 579.05 345.44C579.05 333.27 575.5 323.03 568.41 314.71C561.32 306.39 551.92 302.23 540.19 302.23C523.33 302.23 510.91 306.56 502.93 315.21C494.94 323.86 490.95 336.01 490.95 351.64L459.3 351.64L458.96 350.63C458.4 329.64 465.38 312 479.9 297.71C494.41 283.41 514.51 276.27 540.19 276.27C562.08 276.27 579.52 282.66 592.53 295.45C605.54 308.23 612.05 324.5 612.05 344.27C612.05 357.56 608.11 370.87 600.24 384.21C592.37 397.56 581.34 411.88 567.16 427.17L503.01 496.85L503.34 497.69L620.59 497.69L620.59 523.65Z" />
			<path id="&lt;Compound Path&gt;" fill-rule="evenodd" class="shp0" d="M787.41 441.58L821.07 441.58L821.07 467.54L787.41 467.54L787.41 523.65L754.58 523.65L754.58 467.54L645.04 467.54L645.04 448.93L752.57 279.79L787.41 279.79L787.41 441.58ZM680.21 441.58L754.58 441.58L754.58 327.18L753.57 327.02L750.39 335.39L680.21 441.58Z" />
		</g>
	</g>
</svg>