<svg version="1.2" baseProfile="tiny-ps" xmlns="http://www.w3.org/2000/svg" viewBox="0 0 1280 800">
	<title>Vector Smart Object-ai</title>
	<style>
		tspan { white-space:pre }
		.shp0 { fill: #b4bcbb } 
	</style>
	<g id="Layer 1">
		<path id="&lt;Compound Path&gt;" fill-rule="evenodd" class="shp0" d="M1030 400.19C1030 504.28 989.47 602.32 915.78 676.01C842.09 749.7 744.21 790.23 639.97 790.23C575.26 790.23 511.7 774.21 455.16 743.82C413.17 772.75 362.84 789.25 314.96 789.25C305.33 789.25 296.01 788.43 287.35 787.12C271.5 784.67 259.41 772.42 256.96 756.57C254.67 740.88 262.67 725.52 276.89 718.49C300.09 707.06 320.84 683.2 338.33 647.41C211.7 493.49 221.99 266.37 364.15 124.22C437.84 50.52 535.72 10 639.97 10C744.21 10 842.09 50.69 915.78 124.38C989.47 198.07 1030 296.11 1030 400.19ZM884.57 155.26C819.21 89.9 732.44 53.95 639.97 53.95C547.65 53.95 460.71 89.9 395.36 155.26C266.27 284.35 259.9 492.51 380.81 629.12C386.53 635.65 388.01 644.8 384.58 652.65C366.11 694.96 344.05 725.35 317.74 744.97C339.8 744.48 390.13 738.76 440.13 700.03C444.05 697.09 448.95 695.46 453.69 695.46C457.45 695.46 461.37 696.6 464.8 698.56C517.58 729.61 578.2 746.1 639.97 746.1C732.28 746.1 819.21 710.16 884.57 644.8C1019.54 510 1019.54 290.39 884.57 155.26Z" />
		<path id="&lt;Compound Path&gt;" fill-rule="evenodd" class="shp0" d="M832.18 260.16C857.02 285.16 870.74 318.33 870.74 353.62C870.74 388.76 857.02 421.93 832.01 446.93L655.22 623.07C650.97 627.31 645.25 629.44 639.69 629.44C634.14 629.44 628.42 627.16 624.17 622.9L447.87 446.6C423.03 421.6 409.14 388.59 409.14 353.3C408.98 318.17 422.7 285 447.7 260C472.54 235.16 505.71 221.44 540.84 221.44C576.13 221.44 609.3 235.16 634.3 260.16L639.86 265.72L645.41 260.16C670.42 235.16 703.58 221.44 738.88 221.44C774.01 221.44 807.18 235.16 832.18 260.16ZM826.62 353.46C826.79 330.1 817.64 308.04 800.97 291.38C784.3 274.71 762.24 265.56 738.88 265.56C715.35 265.56 693.29 274.71 676.62 291.38L655.54 312.45C646.88 321.11 633 321.11 624.33 312.45L603.1 291.21C586.43 274.54 564.37 265.39 540.84 265.39C517.31 265.39 495.25 274.54 478.74 291.05C462.24 307.55 453.09 329.61 453.09 353.14C453.09 376.67 462.24 398.72 478.91 415.39L639.69 576.17L800.81 415.72C817.48 399.05 826.62 376.99 826.62 353.46Z" />
	</g>
</svg>